<?xml version="1.0" standalone="no"?>
<!DOCTYPE svg PUBLIC "-//W3C//DTD SVG 20010904//EN"
 "http://www.w3.org/TR/2001/REC-SVG-20010904/DTD/svg10.dtd">
<svg version="1.0" xmlns="http://www.w3.org/2000/svg"
 width="300.000000pt" height="300.000000pt" viewBox="0 0 300.000000 300.000000"
 preserveAspectRatio="xMidYMid meet">

<g transform="translate(0.000000,300.000000) scale(0.100000,-0.100000)"
fill="#000000" stroke="none">
<path d="M725 2143 c-214 -373 -465 -807 -557 -966 -92 -160 -165 -294 -162
-298 7 -12 2231 -12 2238 -1 7 11 -1106 1942 -1119 1942 -5 0 -185 -305 -400
-677z m871 -372 l441 -766 -453 -3 c-249 -1 -659 -1 -912 0 l-459 3 423 735
c234 404 438 760 456 790 l31 55 16 -24 c8 -14 214 -369 457 -790z"/>
<path d="M1925 2149 c-71 -11 -204 -49 -211 -61 -4 -6 33 -83 51 -106 2 -2 34
6 72 18 105 34 290 39 408 11 299 -72 529 -298 605 -595 28 -109 28 -283 0
-392 -70 -272 -267 -483 -540 -576 -89 -30 -104 -32 -240 -32 -122 -1 -157 3
-223 22 -149 43 -282 125 -385 237 l-60 66 -71 -3 -71 -3 36 -54 c21 -30 67
-85 103 -121 271 -270 678 -350 1032 -201 152 64 320 204 412 344 56 84 104
193 129 294 32 126 32 333 -1 453 -48 181 -134 324 -273 456 -204 192 -494
283 -773 243z"/>
</g>
</svg>
